mtllib skybox.mtl
v -0.5 0.5 0.5
v -0.5 -0.5 0.5
v -0.5 -0.5 -0.5
v -0.5 0.5 -0.5
vn 1 0 0
vn 1 0 0
vn 1 0 0
vn 1 0 0
vn 1 0 0
vn 1 0 0
vt 1 0
vt 0 0
vt 1 1
vt 0 1
vt 1 1
vt 0 0
usemtl acmat_0
f 2/1/1 3/2/2 1/3/3
f 4/4/4 1/5/5 3/6/6
v -0.5 -0.5 0.5
v 0.5 -0.5 0.5
v 0.5 -0.5 -0.5
v -0.5 -0.5 -0.5
vn 0 1 0
vn 0 1 0
vn 0 1 0
vn 0 1 0
vn 0 1 0
vn 0 1 0
vt 1.49012e-007 0
vt 0 1
vt 1 1.19209e-007
vt 1 1
vt 1 1.19209e-007
vt 0 1
usemtl acmat_1
f 7/7/7 8/8/8 6/9/9
f 5/10/10 6/11/11 8/12/12
v -0.5 0.5 -0.5
v 0.5 0.5 -0.5
v 0.5 0.5 0.5
v -0.5 0.5 0.5
vn 0 -1 0
vn 0 -1 0
vn 0 -1 0
vn 0 -1 0
vn 0 -1 0
vn 0 -1 0
vt 5.96046e-008 1
vt 1 0
vt 0 5.96046e-008
vt 1 0
vt 5.96046e-008 1
vt 1 1
usemtl acmat_2
f 10/13/13 12/14/14 9/15/15
f 12/16/16 10/17/17 11/18/18
v 0.5 0.5 0.5
v 0.5 -0.5 0.5
v -0.5 -0.5 0.5
v -0.5 0.5 0.5
vn 0 0 -1
vn 0 0 -1
vn 0 0 -1
vn 0 0 -1
vn 0 0 -1
vn 0 0 -1
vt 0 0
vt 0 1
vt 1 0
vt 1 1
vt 1 0
vt 0 1
usemtl acmat_3
f 15/19/19 16/20/20 14/21/21
f 13/22/22 14/23/23 16/24/24
v -0.5 0.5 -0.5
v -0.5 -0.5 -0.5
v 0.5 -0.5 -0.5
v 0.5 0.5 -0.5
vn 0 0 1
vn 0 0 1
vn 0 0 1
vn 0 0 1
vn 0 0 1
vn 0 0 1
vt 0 0
vt 1 1
vt 1 0
vt 1 1
vt 0 0
vt 0 1
usemtl acmat_4
f 19/25/25 17/26/26 18/27/27
f 17/28/28 19/29/29 20/30/30
v 0.5 0.5 -0.5
v 0.5 -0.5 -0.5
v 0.5 -0.5 0.5
v 0.5 0.5 0.5
vn -1 0 0
vn -1 0 0
vn -1 0 0
vn -1 0 0
vn -1 0 0
vn -1 0 0
vt 0 1
vt 1 0
vt 0 0
vt 1 0
vt 0 1
vt 1 1
usemtl acmat_5
f 24/31/31 22/32/32 23/33/33
f 22/34/34 24/35/35 21/36/36
